<?xml version="1.0" encoding="UTF-8"?>
<svg viewBox="0 0 311.74 294.87" xmlns="http://www.w3.org/2000/svg">
<defs>
<style>.a78c6e6f-3a05-4a50-ba26-d71523e8f763{fill:#fff;}.f85b7fca-4a4e-4310-98f9-949065774708{fill:#d41717;}</style>
</defs>
<title>Recurso 8</title>
<g data-name="Capa 2">
<g data-name="Capa 1">
<path class="a78c6e6f-3a05-4a50-ba26-d71523e8f763" d="m13.31 116.92a19.77 19.77 0 0 1 19.76-19.77h130a19.79 19.79 0 0 1 19.78 19.78v101.52a19.77 19.77 0 0 1-19.77 19.77h-59.43a18.42 18.42 0 0 0-13 5.34l-8 8-20.79 20.59v-23.77a10.16 10.16 0 0 0-10.16-10.16h-18.62a19.78 19.78 0 0 1-19.77-19.78z"/>
<path d="M0,116.93V218.44a33.07,33.07,0,0,0,33.07,33.08H48.56v36.7a6.65,6.65,0,0,0,4.1,6.15,6.89,6.89,0,0,0,2.55.5,6.61,6.61,0,0,0,4.7-1.95l41.67-41.4h61.54a33.07,33.07,0,0,0,33.08-33.08V116.93a33.08,33.08,0,0,0-33.08-33.09h-130A33.08,33.08,0,0,0,0,116.93Zm13.31,0A19.77,19.77,0,0,1,33.07,97.15h130a19.79,19.79,0,0,1,19.78,19.78V218.45a19.77,19.77,0,0,1-19.77,19.77H103.65a18.42,18.42,0,0,0-13,5.34l-8,8L61.86,272.15V248.38A10.16,10.16,0,0,0,51.7,238.22H33.08a19.78,19.78,0,0,1-19.77-19.78Z"/>
<circle cx="57.36" cy="197.88" r="13.04"/>
<circle cx="94.75" cy="197.88" r="13.04"/>
<circle cx="132.14" cy="197.88" r="13.04"/>
<path class="a78c6e6f-3a05-4a50-ba26-d71523e8f763" d="M298.43,134.6a19.78,19.78,0,0,1-19.78,19.77H260a10.16,10.16,0,0,0-10.16,10.17v23.77l-20.79-20.63-8-8a18.41,18.41,0,0,0-13-5.35H148.62a19.77,19.77,0,0,1-19.77-19.76V33.08a19.77,19.77,0,0,1,19.77-19.77h130a19.77,19.77,0,0,1,19.77,19.76Z"/>
<path d="M278.66,0h-130a33.08,33.08,0,0,0-33.08,33.08V134.6a33.08,33.08,0,0,0,33.08,33.08h61.54l41.66,41.4a6.66,6.66,0,0,0,11.36-4.7v-36.7h15.48a33.08,33.08,0,0,0,33.08-33.08V33.08A33.08,33.08,0,0,0,278.66,0Zm19.77,134.6a19.78,19.78,0,0,1-19.78,19.77H260a10.16,10.16,0,0,0-10.16,10.17v23.77l-20.79-20.63-8-8a18.41,18.41,0,0,0-13-5.35H148.62a19.77,19.77,0,0,1-19.77-19.76V33.08a19.77,19.77,0,0,1,19.77-19.77h130a19.77,19.77,0,0,1,19.77,19.76Z"/>
<circle class="f85b7fca-4a4e-4310-98f9-949065774708" cx="177.14" cy="114.05" r="13.04"/>
<circle class="f85b7fca-4a4e-4310-98f9-949065774708" cx="214.53" cy="114.05" r="13.04"/>
<circle class="f85b7fca-4a4e-4310-98f9-949065774708" cx="251.91" cy="114.05" r="13.04"/>
</g>
</g>
</svg>
