<?xml version="1.0" encoding="UTF-8"?>
<svg viewBox="0 0 190.29 180" xmlns="http://www.w3.org/2000/svg">
<defs>
<style>.e9c19ed4-16e6-4bb0-94fb-bc56649dc6e0{fill:#fff;}.a00d3e17-61d6-44b4-94cc-b06dd273f017{fill:#d41717;}</style>
</defs>
<title>Logo Matcher</title>
<g data-name="Capa 2">
<g data-name="Capa 1">
<path class="e9c19ed4-16e6-4bb0-94fb-bc56649dc6e0" d="M8.12,71.37A12.08,12.08,0,0,1,20.19,59.3H99.57a12.07,12.07,0,0,1,12.07,12.08v62a12.07,12.07,0,0,1-12.07,12.07H63.27a11.26,11.26,0,0,0-7.92,3.26l-4.9,4.86L37.76,166.13V151.62a6.19,6.19,0,0,0-6.2-6.2H20.2A12.08,12.08,0,0,1,8.12,133.34Z"/>
<path d="M0,71.38v62a20.19,20.19,0,0,0,20.19,20.2h9.45v22.4a4.06,4.06,0,0,0,2.51,3.75,4,4,0,0,0,4.42-.88L62,153.54H99.57a20.19,20.19,0,0,0,20.19-20.2v-62a20.19,20.19,0,0,0-20.19-20.2H20.19A20.19,20.19,0,0,0,0,71.38Zm8.12,0A12.08,12.08,0,0,1,20.19,59.3H99.57a12.07,12.07,0,0,1,12.07,12.08v62a12.07,12.07,0,0,1-12.07,12.07H63.27a11.26,11.26,0,0,0-7.92,3.26l-4.9,4.86L37.76,166.13V151.62a6.19,6.19,0,0,0-6.2-6.2H20.2A12.08,12.08,0,0,1,8.12,133.34Z"/>
<circle cx="35.02" cy="120.79" r="7.96"/>
<circle cx="57.84" cy="120.79" r="7.96"/>
<circle cx="80.66" cy="120.79" r="7.96"/>
<path class="e9c19ed4-16e6-4bb0-94fb-bc56649dc6e0" d="M182.17,82.16A12.06,12.06,0,0,1,170.1,94.23H158.73a6.21,6.21,0,0,0-6.2,6.21V115l-12.69-12.59-4.9-4.86A11.25,11.25,0,0,0,127,94.23H90.72A12.07,12.07,0,0,1,78.65,82.17v-62A12.08,12.08,0,0,1,90.72,8.12H170.1a12.07,12.07,0,0,1,12.07,12.07Z"/>
<path class="a00d3e17-61d6-44b4-94cc-b06dd273f017" d="m142.27 30.64a11.84 11.84 0 0 0-11.27 7.57 11.82 11.82 0 0 0-11.31-7.57c-8.79 0-14.19 5.66-14.19 14.36 0 9.28 6.64 16.88 16.74 23.79 5.3 3.66 8.76 6.21 8.76 6.21s3.41-2.58 8.77-6.24c10.09-6.91 16.74-14.51 16.74-23.79-0.05-8.67-5.45-14.33-14.24-14.33z"/>
<path d="M170.1,0H90.72A20.19,20.19,0,0,0,70.53,20.2v62a20.19,20.19,0,0,0,20.19,20.2h37.57l25.43,25.27a4.06,4.06,0,0,0,6.93-2.87v-22.4h9.45a20.19,20.19,0,0,0,20.19-20.2v-62A20.19,20.19,0,0,0,170.1,0Zm12.07,82.16A12.06,12.06,0,0,1,170.1,94.23H158.73a6.21,6.21,0,0,0-6.2,6.21V115l-12.69-12.59-4.9-4.86A11.25,11.25,0,0,0,127,94.23H90.72A12.07,12.07,0,0,1,78.65,82.17v-62A12.08,12.08,0,0,1,90.72,8.12H170.1a12.07,12.07,0,0,1,12.07,12.07Z"/>
</g>
</g>
</svg>
