<?xml version="1.0" encoding="UTF-8"?>
<svg viewBox="0 0 369.32 305.48" xmlns="http://www.w3.org/2000/svg">
<defs>
<style>.a66533fd-7c0f-46aa-8df2-25901eb2bdb2{fill:#fff;}.af237b25-69b7-46d3-b625-e7d4c2e00deb{fill:#d41717;}</style>
</defs>
<title>Logo Matcher</title>
<g data-name="Capa 2">
<g data-name="Capa 1">
<path class="a66533fd-7c0f-46aa-8df2-25901eb2bdb2" d="M81,184.78a13.4,13.4,0,0,1,13.4-13.41h88.2A13.41,13.41,0,0,1,196,184.78v68.86a13.4,13.4,0,0,1-13.4,13.41H142.24a12.51,12.51,0,0,0-8.8,3.62l-5.44,5.4-14.1,14V273.94a6.89,6.89,0,0,0-6.89-6.89H94.38A13.41,13.41,0,0,1,81,253.63Z"/>
<path d="M71.94,184.78v68.85a22.43,22.43,0,0,0,22.43,22.44h10.5V301a4.51,4.51,0,0,0,7.71,3.19l28.25-28.08h41.75A22.43,22.43,0,0,0,205,253.63V184.78a22.44,22.44,0,0,0-22.43-22.44H94.37A22.44,22.44,0,0,0,71.94,184.78Zm9,0a13.4,13.4,0,0,1,13.4-13.41h88.2A13.41,13.41,0,0,1,196,184.78v68.86a13.4,13.4,0,0,1-13.4,13.41H142.24a12.51,12.51,0,0,0-8.8,3.62l-5.44,5.4-14.1,14V273.94a6.89,6.89,0,0,0-6.89-6.89H94.38A13.41,13.41,0,0,1,81,253.63Z"/>
<circle cx="110.85" cy="239.69" r="8.84"/>
<circle cx="136.21" cy="239.69" r="8.84"/>
<circle cx="161.56" cy="239.69" r="8.84"/>
<path class="a66533fd-7c0f-46aa-8df2-25901eb2bdb2" d="m274.35 196.77a13.41 13.41 0 0 1-13.41 13.41h-12.63a6.89 6.89 0 0 0-6.89 6.89v16.13l-14.1-14-5.45-5.4a12.46 12.46 0 0 0-8.8-3.63h-40.33a13.41 13.41 0 0 1-13.41-13.41v-68.85a13.42 13.42 0 0 1 13.42-13.41h88.19a13.41 13.41 0 0 1 13.41 13.41z"/>
<path class="af237b25-69b7-46d3-b625-e7d4c2e00deb" d="m230 139.52a13.15 13.15 0 0 0-12.58 8.41 13.13 13.13 0 0 0-12.57-8.41c-9.77 0-15.76 6.28-15.76 15.95 0 10.31 7.38 18.77 18.6 26.44 5.95 4.07 9.73 6.93 9.73 6.93s3.79-2.86 9.74-6.93c11.22-7.67 18.6-16.13 18.6-26.44 0.02-9.67-5.98-15.95-15.76-15.95z"/>
<path d="m260.94 105.48h-88.2a22.43 22.43 0 0 0-22.43 22.43v68.86a22.44 22.44 0 0 0 22.43 22.44h41.74l28.26 28.07a4.49 4.49 0 0 0 3.19 1.33 4.57 4.57 0 0 0 1.73-0.35 4.49 4.49 0 0 0 2.78-4.17v-24.88h10.5a22.44 22.44 0 0 0 22.44-22.44v-68.86a22.44 22.44 0 0 0-22.44-22.43zm13.41 91.29a13.41 13.41 0 0 1-13.41 13.41h-12.63a6.89 6.89 0 0 0-6.89 6.89v16.13l-14.1-14-5.45-5.4a12.46 12.46 0 0 0-8.8-3.63h-40.33a13.41 13.41 0 0 1-13.41-13.41v-68.85a13.42 13.42 0 0 1 13.42-13.41h88.19a13.41 13.41 0 0 1 13.41 13.41z"/>
<path d="M73,74.09q-9.28,0-9.28-2.08L61.49,30.22,48.77,72.53q-.42,1.25-7.08,1.25t-6.88-1.15L21.68,29.8,20.22,71.38q-.11,1.58-4,2.14a45.35,45.35,0,0,1-6.41.57,38,38,0,0,1-4.95-.31c-3.33-.49-5-1.35-4.9-2.61L2.4,3.44Q2.4.94,15.11.94a89.94,89.94,0,0,1,9.17.57q5.41.57,6,2.24L42,36.58,52.21,3.65Q53.16.94,66.59.94a89,89,0,0,1,9.22.57q5.37.57,5.37,2l3,68.36c0,.77-1.35,1.32-4.06,1.67A56.84,56.84,0,0,1,73,74.09Z"/>
<path d="m100.56 36.16q-2.91-5.2-2.91-8.49c0-2.19 0.59-3.6 1.77-4.22q5.94-2.61 16.31-2.61t14.64 4.85q4.27 4.85 4.27 14.33v16.46h3.54a3.06 3.06 0 0 1 2.76 2.09 13.59 13.59 0 0 1 1 5.73 15.5 15.5 0 0 1-1.82 7.19q-1.83 3.54-5 3.54a13.28 13.28 0 0 1-9.07-3 8.42 8.42 0 0 1-2.39-3q-4.8 6-14.9 6a17.08 17.08 0 0 1-12.76-5.42 17.84 17.84 0 0 1-5.21-12.82q0-17 20.32-17h5.73v-1c0-1.81-0.3-3-0.89-3.5s-2-0.78-4.11-0.78a54.82 54.82 0 0 0-11.28 1.65zm8.34 19.17a4.65 4.65 0 0 0 1.25 3.5 4.39 4.39 0 0 0 3.18 1.17 4.84 4.84 0 0 0 3.49-1.56v-8h-2.92q-5 0-5 4.89z"/>
<path d="M171.84,73.36c0,.84-2.92,1.25-8.75,1.25-7-.27-10.42-.73-10.42-1.35V36.37h-5.32q-2.08,0-2.08-7.19a35.86,35.86,0,0,1,.36-4.59c.25-1.8.75-2.71,1.51-2.71h5.53V12.71q0-2.09,8.8-2.08t8.81,1.67V19l.1,2.91h8.86c1.18,0,1.77,2.44,1.77,7.3s-.59,7.29-1.77,7.29h-7.4Z"/>
<path d="M203.31,48.14q0,10.22,7.71,10.22a16.09,16.09,0,0,0,8.34-2q1.56,0,2.55,5.36a49.31,49.31,0,0,1,1,7.3,4.25,4.25,0,0,1-.52,2.55Q216.86,75,207.27,75A21.59,21.59,0,0,1,191,67.89q-6.72-7.14-6.72-19.48t6.62-20q6.62-7.6,17.61-7.61t15.27,5.32a5.26,5.26,0,0,1,.94,3.38,22.31,22.31,0,0,1-.84,5.47q-1.87,6.68-4.9,7.72a5.14,5.14,0,0,1-1.19.1c-.53,0-1.17-.42-1.93-1.25q-4.06-4.06-6.51-4.06a5.12,5.12,0,0,0-4.23,2.5Q203.31,42.51,203.31,48.14Z"/>
<path d="M247.81,73.26c0,.62-2.9.94-8.7.94s-8.7-.49-8.7-1.46V1.35c0-.48,1.07-.83,3.23-1s4-.31,5.42-.31q8.74,0,8.75,1.88V22.72A33.56,33.56,0,0,1,256.67,21q7.92,0,12.5,4.22t4.59,15.68v32.3q0,.94-8.13.94c-6.11-.21-9.17-.55-9.17-1V42.41q0-5.1-3.34-5.1a9.52,9.52,0,0,0-5.31,2.19Z"/>
<path d="M322,71.17Q315.44,75,305.12,75a23.76,23.76,0,0,1-17.4-7q-7.08-7-7.08-19.49t6.82-20.06a22.18,22.18,0,0,1,17.25-7.61q10.41,0,16.1,5.32a17.05,17.05,0,0,1,5.68,12.92Q326.49,56,307.1,56h-7.19c0,2.08.58,3.53,1.72,4.32a8.83,8.83,0,0,0,5.06,1.2,30.25,30.25,0,0,0,13.86-3.33c.07-.07.38.42.94,1.46,1.66,3,2.5,5.5,2.5,7.55S323.33,70.55,322,71.17ZM309,41.06q0-4.38-4.27-4.38a5.06,5.06,0,0,0-3.39,1.2,4.32,4.32,0,0,0-1.41,3.49V44.6h5.63Q309,44.6,309,41.06Z"/>
<path d="M356.08,73.88q0,.74-9.48.73c-6.32-.14-9.48-.41-9.48-.83V39.18H334.3a3,3,0,0,1-2.65-2,11.34,11.34,0,0,1-1-5q0-11.26,6.66-11.26a11.13,11.13,0,0,1,7.82,2.87,8.66,8.66,0,0,1,3.13,6.51,18.31,18.31,0,0,1,5.88-6.83,13.2,13.2,0,0,1,7.56-2.55q6,0,7.29,3.13a7.24,7.24,0,0,1,.32,2.45,30.08,30.08,0,0,1-1,5.78,25.05,25.05,0,0,1-2,6c-.69,1.26-1.11,1.88-1.25,1.88a11.37,11.37,0,0,1-1.92-.78,7.63,7.63,0,0,0-3.08-.78q-4,0-4,6.25Z"/>
</g>
</g>
</svg>
