<?xml version="1.0" encoding="UTF-8"?>
<svg viewBox="0 0 611.2 200" xmlns="http://www.w3.org/2000/svg">
<defs>
<style>.bd5c0da9-cea3-4919-b832-f0a27a544893{fill:#fff;}.aea8519d-45a6-415d-858f-1e8ac8e0a5a8{fill:#d41717;}</style>
</defs>
<title>Logo Matcher</title>
<g data-name="Capa 2">
<g data-name="Capa 1">
<path class="bd5c0da9-cea3-4919-b832-f0a27a544893" d="M9,79.3a13.41,13.41,0,0,1,13.4-13.41h88.2A13.41,13.41,0,0,1,124,79.31v68.86a13.4,13.4,0,0,1-13.4,13.4H70.3a12.52,12.52,0,0,0-8.8,3.63l-5.44,5.4-14.1,14V168.47a6.9,6.9,0,0,0-6.89-6.9H22.44A13.41,13.41,0,0,1,9,148.16Z"/>
<path d="M0,79.31v68.85A22.43,22.43,0,0,0,22.43,170.6h10.5v24.89a4.52,4.52,0,0,0,7.71,3.19L68.89,170.6h41.75a22.43,22.43,0,0,0,22.43-22.44V79.31a22.43,22.43,0,0,0-22.43-22.44H22.43A22.43,22.43,0,0,0,0,79.31Zm9,0a13.41,13.41,0,0,1,13.4-13.41h88.2A13.41,13.41,0,0,1,124,79.31v68.86a13.4,13.4,0,0,1-13.4,13.4H70.3a12.52,12.52,0,0,0-8.8,3.63l-5.44,5.4-14.1,14V168.47a6.9,6.9,0,0,0-6.89-6.9H22.44A13.41,13.41,0,0,1,9,148.16Z"/>
<circle cx="38.91" cy="134.21" r="8.84"/>
<circle cx="64.27" cy="134.21" r="8.84"/>
<circle cx="89.62" cy="134.21" r="8.84"/>
<path class="bd5c0da9-cea3-4919-b832-f0a27a544893" d="M202.41,91.29A13.41,13.41,0,0,1,189,104.7H176.37a6.89,6.89,0,0,0-6.89,6.9v16.12l-14.1-14-5.45-5.4a12.5,12.5,0,0,0-8.8-3.63H100.8A13.41,13.41,0,0,1,87.39,91.3V22.44A13.41,13.41,0,0,1,100.81,9H189a13.4,13.4,0,0,1,13.41,13.4Z"/>
<path class="aea8519d-45a6-415d-858f-1e8ac8e0a5a8" d="m158.08 34a13.16 13.16 0 0 0-12.58 8.42 13.14 13.14 0 0 0-12.57-8.42c-9.77 0-15.76 6.29-15.76 16 0 10.31 7.38 18.76 18.6 26.43 5.95 4.07 9.73 6.93 9.73 6.93s3.79-2.86 9.74-6.93c11.22-7.67 18.6-16.12 18.6-26.43 0-9.67-6-16-15.76-16z"/>
<path d="M189,0H100.8A22.43,22.43,0,0,0,78.37,22.44V91.29a22.43,22.43,0,0,0,22.43,22.44h41.74l28.26,28.08a4.51,4.51,0,0,0,7.7-3.19V113.73H189a22.44,22.44,0,0,0,22.44-22.44V22.44A22.44,22.44,0,0,0,189,0Zm13.41,91.29A13.41,13.41,0,0,1,189,104.7H176.37a6.89,6.89,0,0,0-6.89,6.9v16.12l-14.1-14-5.45-5.4a12.5,12.5,0,0,0-8.8-3.63H100.8A13.41,13.41,0,0,1,87.39,91.3V22.44A13.41,13.41,0,0,1,100.81,9H189a13.4,13.4,0,0,1,13.41,13.4Z"/>
<path d="M314.83,114.64q-9.27,0-9.27-2.08l-2.19-41.79-12.72,42.31c-.27.83-2.64,1.25-7.08,1.25s-6.74-.38-6.88-1.15L263.56,70.35l-1.46,41.58c-.07,1-1.39,1.76-4,2.14a45.35,45.35,0,0,1-6.41.57,38,38,0,0,1-4.95-.31c-3.33-.49-5-1.36-4.9-2.61L244.28,44q0-2.51,12.72-2.51a90.48,90.48,0,0,1,9.17.58q5.41.57,6,2.24l11.67,32.82,10.21-32.93q.95-2.7,14.38-2.71a89.67,89.67,0,0,1,9.23.58q5.35.57,5.36,2l3,68.36c0,.77-1.36,1.32-4.07,1.67A56.71,56.71,0,0,1,314.83,114.64Z"/>
<path d="m342.45 76.71q-2.93-5.22-2.92-8.5c0-2.18 0.59-3.59 1.77-4.22q5.94-2.6 16.31-2.6t14.64 4.84q4.28 4.86 4.27 14.33v16.44h3.55a3 3 0 0 1 2.76 2.08 13.59 13.59 0 0 1 1 5.73 15.48 15.48 0 0 1-1.83 7.19q-1.82 3.56-4.95 3.55a13.24 13.24 0 0 1-9.06-3 8.39 8.39 0 0 1-2.4-3q-4.8 6-14.9 6a17.1 17.1 0 0 1-12.82-5.42 17.89 17.89 0 0 1-5.21-12.82q0-17 20.32-17h5.73v-1c0-1.8-0.29-3-0.88-3.49s-2-0.78-4.12-0.78a54.65 54.65 0 0 0-11.26 1.67zm8.33 19.17a4.61 4.61 0 0 0 1.22 3.49 4.43 4.43 0 0 0 3.18 1.2 4.82 4.82 0 0 0 3.52-1.57v-8h-2.92c-3.33 0-5 1.62-5 4.88z"/>
<path d="M413.72,113.91c0,.83-2.91,1.25-8.75,1.25q-10.43-.42-10.42-1.35V76.92h-5.31q-2.08,0-2.09-7.19a34.35,34.35,0,0,1,.37-4.59c.24-1.81.74-2.71,1.51-2.71h5.52V53.26c0-1.39,2.93-2.08,8.81-2.08s8.8.55,8.8,1.66v6.67l.11,2.92h8.85c1.18,0,1.78,2.43,1.78,7.3S422.3,77,421.12,77h-7.4Z"/>
<path d="M445.2,88.69q0,10.22,7.71,10.21a16.08,16.08,0,0,0,8.33-2q1.58,0,2.56,5.37a49.31,49.31,0,0,1,1,7.3,4.35,4.35,0,0,1-.52,2.55q-5.53,3.44-15.11,3.44a21.56,21.56,0,0,1-16.31-7.14q-6.72-7.14-6.72-19.49t6.61-20q6.61-7.61,17.61-7.61t15.27,5.31a5.25,5.25,0,0,1,.94,3.39,22.73,22.73,0,0,1-.83,5.47q-1.89,6.68-4.9,7.71a5.19,5.19,0,0,1-1.2.11c-.52,0-1.17-.42-1.93-1.25q-4.06-4.06-6.51-4.07a5.11,5.11,0,0,0-4.22,2.5Q445.2,83.07,445.2,88.69Z"/>
<path d="M489.69,113.81q0,.93-8.7.93c-5.8,0-8.7-.48-8.7-1.46V41.9c0-.48,1.08-.83,3.23-1s4-.31,5.42-.31c5.84,0,8.75.62,8.75,1.87V63.26a33.63,33.63,0,0,1,8.86-1.77q7.92,0,12.51,4.22t4.58,15.69v32.3q0,.94-8.13.94-9.17-.31-9.17-1V83c0-3.4-1.11-5.11-3.33-5.11A9.54,9.54,0,0,0,489.69,80Z"/>
<path d="m563.89 111.72q-6.57 3.86-16.88 3.86a23.77 23.77 0 0 1-17.41-7q-7.08-7-7.08-19.48t6.82-20.1a22.18 22.18 0 0 1 17.25-7.61q10.42 0 16.1 5.31a17.05 17.05 0 0 1 5.68 12.93q0 16.88-19.38 16.88h-7.19q0 3.12 1.72 4.32a8.8 8.8 0 0 0 5.05 1.2 30.25 30.25 0 0 0 13.86-3.33c0.07-0.07 0.38 0.41 0.94 1.45 1.66 3 2.5 5.51 2.5 7.56s-0.66 3.39-1.98 4.01zm-13-30.11q0-4.38-4.27-4.38a5.06 5.06 0 0 0-3.39 1.2 4.35 4.35 0 0 0-1.4 3.49v3.23h5.62c2.27 0 3.41-1.15 3.41-3.54z"/>
<path d="M598,114.43q0,.73-9.48.73Q579,115,579,114.33V79.73h-2.81a3,3,0,0,1-2.66-2,11.52,11.52,0,0,1-1-5.06q0-11.25,6.67-11.25A11.11,11.11,0,0,1,587,64.25a8.66,8.66,0,0,1,3.13,6.52A18.17,18.17,0,0,1,596,63.94a13.15,13.15,0,0,1,7.55-2.55q6,0,7.3,3.13A7.52,7.52,0,0,1,611.2,67a30,30,0,0,1-1,5.79,25.58,25.58,0,0,1-2,6c-.7,1.25-1.12,1.88-1.25,1.88a11.28,11.28,0,0,1-1.93-.78,7.46,7.46,0,0,0-3.08-.79q-4,0-4,6.26Z"/>
</g>
</g>
</svg>
