<?xml version="1.0" encoding="UTF-8"?>
<svg viewBox="0 0 161.36 152.63" xmlns="http://www.w3.org/2000/svg">
<defs>
<style>.b63c4d6a-02cf-48e1-a84d-32fc7a6de3a8{fill:#fff;}.fc13b3f2-a794-4556-99db-504580003b5a{fill:#d41717;}</style>
</defs>
<title>Recurso 9</title>
<g data-name="Capa 2">
<g data-name="Capa 1">
<path class="b63c4d6a-02cf-48e1-a84d-32fc7a6de3a8" d="M6.89,60.52A10.23,10.23,0,0,1,17.12,50.29H84.43A10.24,10.24,0,0,1,94.67,60.52v52.56a10.23,10.23,0,0,1-10.23,10.23H53.65a9.52,9.52,0,0,0-6.71,2.76l-4.16,4.13L32,140.87v-12.3a5.25,5.25,0,0,0-5.26-5.26H17.12A10.24,10.24,0,0,1,6.89,113.07Z"/>
<path d="M0,60.52v52.55A17.12,17.12,0,0,0,17.12,130.2h8v19a3.44,3.44,0,0,0,2.13,3.18,3.38,3.38,0,0,0,1.32.26,3.42,3.42,0,0,0,2.43-1L52.58,130.2H84.44a17.13,17.13,0,0,0,17.12-17.13V60.52A17.12,17.12,0,0,0,84.44,43.4H17.12A17.11,17.11,0,0,0,0,60.52Zm6.89,0A10.23,10.23,0,0,1,17.12,50.29H84.43A10.24,10.24,0,0,1,94.67,60.52v52.56a10.23,10.23,0,0,1-10.23,10.23H53.65a9.52,9.52,0,0,0-6.71,2.76l-4.16,4.13L32,140.87v-12.3a5.25,5.25,0,0,0-5.26-5.26H17.12A10.24,10.24,0,0,1,6.89,113.07Z"/>
<circle cx="29.69" cy="102.43" r="6.75"/>
<circle cx="49.05" cy="102.43" r="6.75"/>
<circle cx="68.4" cy="102.43" r="6.75"/>
<path class="b63c4d6a-02cf-48e1-a84d-32fc7a6de3a8" d="M154.47,69.67a10.24,10.24,0,0,1-10.23,10.24H134.6a5.25,5.25,0,0,0-5.26,5.26v12.3L118.58,86.8l-4.16-4.13a9.52,9.52,0,0,0-6.71-2.76H76.93A10.23,10.23,0,0,1,66.7,69.68V17.12A10.23,10.23,0,0,1,76.93,6.89h67.31a10.23,10.23,0,0,1,10.23,10.23Z"/>
<path d="M144.24,0H76.93A17.11,17.11,0,0,0,59.81,17.12V69.67A17.12,17.12,0,0,0,76.93,86.8h31.85l21.57,21.42a3.44,3.44,0,0,0,2.43,1,3.38,3.38,0,0,0,1.32-.26,3.44,3.44,0,0,0,2.13-3.18v-19h8a17.12,17.12,0,0,0,17.12-17.13V17.12A17.11,17.11,0,0,0,144.24,0Zm10.23,69.67a10.24,10.24,0,0,1-10.23,10.24H134.6a5.25,5.25,0,0,0-5.26,5.26v12.3L118.58,86.8l-4.16-4.13a9.52,9.52,0,0,0-6.71-2.76H76.93A10.23,10.23,0,0,1,66.7,69.68V17.12A10.23,10.23,0,0,1,76.93,6.89h67.31a10.23,10.23,0,0,1,10.23,10.23Z"/>
<path class="fc13b3f2-a794-4556-99db-504580003b5a" d="m132.68 38.16c0 7.87-5.64 14.32-14.2 20.17-4.55 3.12-7.44 5.29-7.44 5.29s-2.89-2.17-7.43-5.29c-8.56-5.85-14.2-12.3-14.2-20.17 0-7.39 4.58-12.18 12-12.18a13.76 13.76 0 0 1 2 0.15l6 8.93-8.33 6.94 10.37 16.4-2.85-14.47 9.2-8-2.48-8.58a10.38 10.38 0 0 1 5.32-1.35c7.46 0 12.04 4.77 12.04 12.16z"/>
</g>
</g>
</svg>
